<mxfile host="app.diagrams.net" modified="2023-05-04T13:08:18.419Z" agent="Mozilla/5.0 (Windows NT 10.0; Win64; x64) AppleWebKit/537.36 (KHTML, like Gecko) Chrome/109.0.0.0 Safari/537.36" etag="Z5TqQbsI_NJauuyWb88f" version="21.2.7" type="github">
  <diagram id="C5RBs43oDa-KdzZeNtuy" name="Page-1">
    <mxGraphModel dx="1912" dy="1061" grid="1" gridSize="10" guides="1" tooltips="1" connect="1" arrows="1" fold="1" page="1" pageScale="1" pageWidth="827" pageHeight="1169" math="0" shadow="0">
      <root>
        <mxCell id="WIyWlLk6GJQsqaUBKTNV-0" />
        <mxCell id="WIyWlLk6GJQsqaUBKTNV-1" parent="WIyWlLk6GJQsqaUBKTNV-0" />
        <mxCell id="B6J_ARxQb1qCebxdaRCz-25" value="" style="rounded=0;whiteSpace=wrap;html=1;" vertex="1" parent="WIyWlLk6GJQsqaUBKTNV-1">
          <mxGeometry x="235" y="130" width="150" height="220" as="geometry" />
        </mxCell>
        <mxCell id="B6J_ARxQb1qCebxdaRCz-32" style="edgeStyle=orthogonalEdgeStyle;rounded=0;orthogonalLoop=1;jettySize=auto;html=1;entryX=0.5;entryY=0;entryDx=0;entryDy=0;" edge="1" parent="WIyWlLk6GJQsqaUBKTNV-1" source="B6J_ARxQb1qCebxdaRCz-1" target="B6J_ARxQb1qCebxdaRCz-21">
          <mxGeometry relative="1" as="geometry" />
        </mxCell>
        <mxCell id="B6J_ARxQb1qCebxdaRCz-1" value="Figma Project &lt;br&gt;(ID / Link)" style="rounded=0;whiteSpace=wrap;html=1;" vertex="1" parent="WIyWlLk6GJQsqaUBKTNV-1">
          <mxGeometry x="80" y="30" width="120" height="60" as="geometry" />
        </mxCell>
        <mxCell id="B6J_ARxQb1qCebxdaRCz-2" value="" style="endArrow=none;html=1;rounded=0;dashed=1;" edge="1" parent="WIyWlLk6GJQsqaUBKTNV-1">
          <mxGeometry width="50" height="50" relative="1" as="geometry">
            <mxPoint y="120" as="sourcePoint" />
            <mxPoint x="1650" y="120" as="targetPoint" />
          </mxGeometry>
        </mxCell>
        <mxCell id="B6J_ARxQb1qCebxdaRCz-11" value="Figma &lt;br&gt;REST API" style="shape=hexagon;perimeter=hexagonPerimeter2;whiteSpace=wrap;html=1;fixedSize=1;" vertex="1" parent="WIyWlLk6GJQsqaUBKTNV-1">
          <mxGeometry x="250" y="250" width="120" height="80" as="geometry" />
        </mxCell>
        <mxCell id="B6J_ARxQb1qCebxdaRCz-17" value="View" style="text;html=1;align=center;verticalAlign=middle;resizable=0;points=[];autosize=1;strokeColor=none;fillColor=none;rotation=-90;" vertex="1" parent="WIyWlLk6GJQsqaUBKTNV-1">
          <mxGeometry x="-5" y="45" width="50" height="30" as="geometry" />
        </mxCell>
        <mxCell id="B6J_ARxQb1qCebxdaRCz-92" style="edgeStyle=orthogonalEdgeStyle;rounded=0;orthogonalLoop=1;jettySize=auto;html=1;entryX=0;entryY=0.5;entryDx=0;entryDy=0;" edge="1" parent="WIyWlLk6GJQsqaUBKTNV-1" source="B6J_ARxQb1qCebxdaRCz-18" target="B6J_ARxQb1qCebxdaRCz-91">
          <mxGeometry relative="1" as="geometry" />
        </mxCell>
        <mxCell id="B6J_ARxQb1qCebxdaRCz-18" value="Downloadable Angular Project as zip" style="rounded=0;whiteSpace=wrap;html=1;" vertex="1" parent="WIyWlLk6GJQsqaUBKTNV-1">
          <mxGeometry x="1350" y="30" width="140" height="60" as="geometry" />
        </mxCell>
        <mxCell id="B6J_ARxQb1qCebxdaRCz-70" style="edgeStyle=orthogonalEdgeStyle;rounded=0;orthogonalLoop=1;jettySize=auto;html=1;entryX=0;entryY=0.5;entryDx=0;entryDy=0;" edge="1" parent="WIyWlLk6GJQsqaUBKTNV-1" source="B6J_ARxQb1qCebxdaRCz-20" target="B6J_ARxQb1qCebxdaRCz-69">
          <mxGeometry relative="1" as="geometry" />
        </mxCell>
        <mxCell id="B6J_ARxQb1qCebxdaRCz-20" value="Angular Generator" style="rounded=0;whiteSpace=wrap;html=1;" vertex="1" parent="WIyWlLk6GJQsqaUBKTNV-1">
          <mxGeometry x="990" y="370" width="120" height="60" as="geometry" />
        </mxCell>
        <mxCell id="B6J_ARxQb1qCebxdaRCz-33" style="edgeStyle=orthogonalEdgeStyle;rounded=0;orthogonalLoop=1;jettySize=auto;html=1;entryX=0;entryY=0.5;entryDx=0;entryDy=0;" edge="1" parent="WIyWlLk6GJQsqaUBKTNV-1" source="B6J_ARxQb1qCebxdaRCz-21" target="B6J_ARxQb1qCebxdaRCz-31">
          <mxGeometry relative="1" as="geometry" />
        </mxCell>
        <mxCell id="B6J_ARxQb1qCebxdaRCz-21" value="Figma Reader&lt;br&gt;Component" style="rounded=0;whiteSpace=wrap;html=1;" vertex="1" parent="WIyWlLk6GJQsqaUBKTNV-1">
          <mxGeometry x="80" y="150" width="120" height="60" as="geometry" />
        </mxCell>
        <mxCell id="B6J_ARxQb1qCebxdaRCz-23" value="Java (Jackson)" style="text;html=1;align=center;verticalAlign=middle;resizable=0;points=[];autosize=1;strokeColor=none;fillColor=none;" vertex="1" parent="WIyWlLk6GJQsqaUBKTNV-1">
          <mxGeometry x="40" y="360" width="100" height="30" as="geometry" />
        </mxCell>
        <mxCell id="B6J_ARxQb1qCebxdaRCz-24" value="Component Placer" style="rounded=0;whiteSpace=wrap;html=1;" vertex="1" parent="WIyWlLk6GJQsqaUBKTNV-1">
          <mxGeometry x="1160" y="530" width="120" height="60" as="geometry" />
        </mxCell>
        <mxCell id="B6J_ARxQb1qCebxdaRCz-26" value="Controller" style="text;html=1;align=center;verticalAlign=middle;resizable=0;points=[];autosize=1;strokeColor=none;fillColor=none;rotation=-90;" vertex="1" parent="WIyWlLk6GJQsqaUBKTNV-1">
          <mxGeometry x="-20" y="230" width="80" height="30" as="geometry" />
        </mxCell>
        <mxCell id="B6J_ARxQb1qCebxdaRCz-27" value="Model (Backend Service)" style="text;html=1;align=center;verticalAlign=middle;resizable=0;points=[];autosize=1;strokeColor=none;fillColor=none;rotation=-90;" vertex="1" parent="WIyWlLk6GJQsqaUBKTNV-1">
          <mxGeometry x="-60" y="465" width="160" height="30" as="geometry" />
        </mxCell>
        <mxCell id="B6J_ARxQb1qCebxdaRCz-29" value="" style="endArrow=none;dashed=1;html=1;rounded=0;" edge="1" parent="WIyWlLk6GJQsqaUBKTNV-1">
          <mxGeometry width="50" height="50" relative="1" as="geometry">
            <mxPoint y="360" as="sourcePoint" />
            <mxPoint x="1650" y="360" as="targetPoint" />
          </mxGeometry>
        </mxCell>
        <mxCell id="B6J_ARxQb1qCebxdaRCz-30" value="" style="endArrow=none;html=1;rounded=0;" edge="1" parent="WIyWlLk6GJQsqaUBKTNV-1">
          <mxGeometry width="50" height="50" relative="1" as="geometry">
            <mxPoint x="40" y="600" as="sourcePoint" />
            <mxPoint x="40" as="targetPoint" />
          </mxGeometry>
        </mxCell>
        <mxCell id="B6J_ARxQb1qCebxdaRCz-34" style="edgeStyle=orthogonalEdgeStyle;rounded=0;orthogonalLoop=1;jettySize=auto;html=1;entryX=0.5;entryY=0;entryDx=0;entryDy=0;shape=link;" edge="1" parent="WIyWlLk6GJQsqaUBKTNV-1" source="B6J_ARxQb1qCebxdaRCz-31" target="B6J_ARxQb1qCebxdaRCz-11">
          <mxGeometry relative="1" as="geometry" />
        </mxCell>
        <mxCell id="B6J_ARxQb1qCebxdaRCz-38" style="edgeStyle=orthogonalEdgeStyle;rounded=0;orthogonalLoop=1;jettySize=auto;html=1;entryX=0;entryY=0.5;entryDx=0;entryDy=0;" edge="1" parent="WIyWlLk6GJQsqaUBKTNV-1" source="B6J_ARxQb1qCebxdaRCz-31" target="B6J_ARxQb1qCebxdaRCz-37">
          <mxGeometry relative="1" as="geometry" />
        </mxCell>
        <mxCell id="B6J_ARxQb1qCebxdaRCz-31" value="Figma Reader&lt;br&gt;Service" style="rounded=0;whiteSpace=wrap;html=1;" vertex="1" parent="WIyWlLk6GJQsqaUBKTNV-1">
          <mxGeometry x="250" y="150" width="120" height="60" as="geometry" />
        </mxCell>
        <mxCell id="B6J_ARxQb1qCebxdaRCz-36" value="JSON Tree Structure" style="text;html=1;align=center;verticalAlign=middle;resizable=0;points=[];autosize=1;strokeColor=none;fillColor=none;rotation=-90;" vertex="1" parent="WIyWlLk6GJQsqaUBKTNV-1">
          <mxGeometry x="160" y="275" width="130" height="30" as="geometry" />
        </mxCell>
        <mxCell id="B6J_ARxQb1qCebxdaRCz-73" style="edgeStyle=orthogonalEdgeStyle;rounded=0;orthogonalLoop=1;jettySize=auto;html=1;entryX=0.5;entryY=0;entryDx=0;entryDy=0;" edge="1" parent="WIyWlLk6GJQsqaUBKTNV-1" source="B6J_ARxQb1qCebxdaRCz-37" target="B6J_ARxQb1qCebxdaRCz-57">
          <mxGeometry relative="1" as="geometry" />
        </mxCell>
        <mxCell id="B6J_ARxQb1qCebxdaRCz-99" style="edgeStyle=orthogonalEdgeStyle;rounded=0;orthogonalLoop=1;jettySize=auto;html=1;entryX=0.5;entryY=1;entryDx=0;entryDy=0;shape=link;" edge="1" parent="WIyWlLk6GJQsqaUBKTNV-1" source="B6J_ARxQb1qCebxdaRCz-37" target="B6J_ARxQb1qCebxdaRCz-93">
          <mxGeometry relative="1" as="geometry" />
        </mxCell>
        <mxCell id="B6J_ARxQb1qCebxdaRCz-37" value="Controller" style="rounded=0;whiteSpace=wrap;html=1;fillColor=#f8cecc;strokeColor=#b85450;" vertex="1" parent="WIyWlLk6GJQsqaUBKTNV-1">
          <mxGeometry x="460" y="150" width="120" height="60" as="geometry" />
        </mxCell>
        <mxCell id="B6J_ARxQb1qCebxdaRCz-75" style="edgeStyle=orthogonalEdgeStyle;rounded=0;orthogonalLoop=1;jettySize=auto;html=1;entryX=0;entryY=0.5;entryDx=0;entryDy=0;" edge="1" parent="WIyWlLk6GJQsqaUBKTNV-1" source="B6J_ARxQb1qCebxdaRCz-42" target="B6J_ARxQb1qCebxdaRCz-6">
          <mxGeometry relative="1" as="geometry" />
        </mxCell>
        <mxCell id="B6J_ARxQb1qCebxdaRCz-76" style="edgeStyle=orthogonalEdgeStyle;rounded=0;orthogonalLoop=1;jettySize=auto;html=1;entryX=0;entryY=0.5;entryDx=0;entryDy=0;" edge="1" parent="WIyWlLk6GJQsqaUBKTNV-1" source="B6J_ARxQb1qCebxdaRCz-42" target="B6J_ARxQb1qCebxdaRCz-53">
          <mxGeometry relative="1" as="geometry" />
        </mxCell>
        <mxCell id="B6J_ARxQb1qCebxdaRCz-42" value="JSON Segmenter" style="rounded=0;whiteSpace=wrap;html=1;" vertex="1" parent="WIyWlLk6GJQsqaUBKTNV-1">
          <mxGeometry x="640" y="450" width="120" height="60" as="geometry" />
        </mxCell>
        <mxCell id="B6J_ARxQb1qCebxdaRCz-77" style="edgeStyle=orthogonalEdgeStyle;rounded=0;orthogonalLoop=1;jettySize=auto;html=1;entryX=0;entryY=0.5;entryDx=0;entryDy=0;" edge="1" parent="WIyWlLk6GJQsqaUBKTNV-1" source="B6J_ARxQb1qCebxdaRCz-6" target="B6J_ARxQb1qCebxdaRCz-20">
          <mxGeometry relative="1" as="geometry" />
        </mxCell>
        <mxCell id="B6J_ARxQb1qCebxdaRCz-6" value="Style Guide" style="rounded=1;whiteSpace=wrap;html=1;" vertex="1" parent="WIyWlLk6GJQsqaUBKTNV-1">
          <mxGeometry x="810" y="380" width="120" height="40" as="geometry" />
        </mxCell>
        <mxCell id="B6J_ARxQb1qCebxdaRCz-81" style="edgeStyle=orthogonalEdgeStyle;rounded=0;orthogonalLoop=1;jettySize=auto;html=1;entryX=0;entryY=0.5;entryDx=0;entryDy=0;" edge="1" parent="WIyWlLk6GJQsqaUBKTNV-1" source="B6J_ARxQb1qCebxdaRCz-53" target="B6J_ARxQb1qCebxdaRCz-80">
          <mxGeometry relative="1" as="geometry" />
        </mxCell>
        <mxCell id="B6J_ARxQb1qCebxdaRCz-53" value="Screen Mockups" style="rounded=1;whiteSpace=wrap;html=1;" vertex="1" parent="WIyWlLk6GJQsqaUBKTNV-1">
          <mxGeometry x="810" y="540" width="120" height="40" as="geometry" />
        </mxCell>
        <mxCell id="B6J_ARxQb1qCebxdaRCz-74" style="edgeStyle=orthogonalEdgeStyle;rounded=0;orthogonalLoop=1;jettySize=auto;html=1;entryX=0;entryY=0.5;entryDx=0;entryDy=0;" edge="1" parent="WIyWlLk6GJQsqaUBKTNV-1" source="B6J_ARxQb1qCebxdaRCz-57" target="B6J_ARxQb1qCebxdaRCz-42">
          <mxGeometry relative="1" as="geometry" />
        </mxCell>
        <mxCell id="B6J_ARxQb1qCebxdaRCz-57" value="Retriever" style="rounded=0;whiteSpace=wrap;html=1;fillColor=#fff2cc;strokeColor=#d6b656;" vertex="1" parent="WIyWlLk6GJQsqaUBKTNV-1">
          <mxGeometry x="460" y="450" width="120" height="60" as="geometry" />
        </mxCell>
        <mxCell id="B6J_ARxQb1qCebxdaRCz-35" value="&lt;span style=&quot;color: rgb(0, 0, 0); font-family: Helvetica; font-size: 12px; font-style: normal; font-variant-ligatures: normal; font-variant-caps: normal; font-weight: 400; letter-spacing: normal; orphans: 2; text-align: center; text-indent: 0px; text-transform: none; widows: 2; word-spacing: 0px; -webkit-text-stroke-width: 0px; background-color: rgb(251, 251, 251); text-decoration-thickness: initial; text-decoration-style: initial; text-decoration-color: initial; float: none; display: inline !important;&quot;&gt;(Angular App)&lt;/span&gt;" style="text;whiteSpace=wrap;html=1;rotation=-90;" vertex="1" parent="WIyWlLk6GJQsqaUBKTNV-1">
          <mxGeometry x="-10" y="110" width="80" height="30" as="geometry" />
        </mxCell>
        <mxCell id="B6J_ARxQb1qCebxdaRCz-84" style="edgeStyle=orthogonalEdgeStyle;rounded=0;orthogonalLoop=1;jettySize=auto;html=1;entryX=0.25;entryY=0;entryDx=0;entryDy=0;" edge="1" parent="WIyWlLk6GJQsqaUBKTNV-1" source="B6J_ARxQb1qCebxdaRCz-69" target="B6J_ARxQb1qCebxdaRCz-80">
          <mxGeometry relative="1" as="geometry">
            <Array as="points">
              <mxPoint x="1220" y="480" />
              <mxPoint x="1020" y="480" />
            </Array>
          </mxGeometry>
        </mxCell>
        <mxCell id="B6J_ARxQb1qCebxdaRCz-95" style="edgeStyle=orthogonalEdgeStyle;rounded=0;orthogonalLoop=1;jettySize=auto;html=1;entryX=0.5;entryY=1;entryDx=0;entryDy=0;shape=link;" edge="1" parent="WIyWlLk6GJQsqaUBKTNV-1" source="B6J_ARxQb1qCebxdaRCz-69" target="B6J_ARxQb1qCebxdaRCz-93">
          <mxGeometry relative="1" as="geometry" />
        </mxCell>
        <mxCell id="B6J_ARxQb1qCebxdaRCz-69" value="Custom &lt;br&gt;Schematics / Lib" style="rounded=0;whiteSpace=wrap;html=1;" vertex="1" parent="WIyWlLk6GJQsqaUBKTNV-1">
          <mxGeometry x="1160" y="370" width="120" height="60" as="geometry" />
        </mxCell>
        <mxCell id="B6J_ARxQb1qCebxdaRCz-82" style="edgeStyle=orthogonalEdgeStyle;rounded=0;orthogonalLoop=1;jettySize=auto;html=1;entryX=0;entryY=0.5;entryDx=0;entryDy=0;shape=link;" edge="1" parent="WIyWlLk6GJQsqaUBKTNV-1" source="B6J_ARxQb1qCebxdaRCz-80" target="B6J_ARxQb1qCebxdaRCz-24">
          <mxGeometry relative="1" as="geometry" />
        </mxCell>
        <mxCell id="B6J_ARxQb1qCebxdaRCz-97" style="edgeStyle=orthogonalEdgeStyle;rounded=0;orthogonalLoop=1;jettySize=auto;html=1;exitX=0.75;exitY=0;exitDx=0;exitDy=0;" edge="1" parent="WIyWlLk6GJQsqaUBKTNV-1" source="B6J_ARxQb1qCebxdaRCz-80" target="B6J_ARxQb1qCebxdaRCz-85">
          <mxGeometry relative="1" as="geometry">
            <Array as="points">
              <mxPoint x="1080" y="510" />
              <mxPoint x="1235" y="510" />
              <mxPoint x="1235" y="480" />
            </Array>
          </mxGeometry>
        </mxCell>
        <mxCell id="B6J_ARxQb1qCebxdaRCz-80" value="Screen Generator" style="rounded=0;whiteSpace=wrap;html=1;" vertex="1" parent="WIyWlLk6GJQsqaUBKTNV-1">
          <mxGeometry x="990" y="530" width="120" height="60" as="geometry" />
        </mxCell>
        <mxCell id="B6J_ARxQb1qCebxdaRCz-90" style="edgeStyle=orthogonalEdgeStyle;rounded=0;orthogonalLoop=1;jettySize=auto;html=1;entryX=0.5;entryY=1;entryDx=0;entryDy=0;" edge="1" parent="WIyWlLk6GJQsqaUBKTNV-1" source="B6J_ARxQb1qCebxdaRCz-85" target="B6J_ARxQb1qCebxdaRCz-89">
          <mxGeometry relative="1" as="geometry" />
        </mxCell>
        <mxCell id="B6J_ARxQb1qCebxdaRCz-85" value="Retriever" style="rounded=0;whiteSpace=wrap;html=1;fillColor=#fff2cc;strokeColor=#d6b656;" vertex="1" parent="WIyWlLk6GJQsqaUBKTNV-1">
          <mxGeometry x="1360" y="450" width="120" height="60" as="geometry" />
        </mxCell>
        <mxCell id="B6J_ARxQb1qCebxdaRCz-96" style="edgeStyle=orthogonalEdgeStyle;rounded=0;orthogonalLoop=1;jettySize=auto;html=1;entryX=0.5;entryY=1;entryDx=0;entryDy=0;" edge="1" parent="WIyWlLk6GJQsqaUBKTNV-1" source="B6J_ARxQb1qCebxdaRCz-89" target="B6J_ARxQb1qCebxdaRCz-18">
          <mxGeometry relative="1" as="geometry" />
        </mxCell>
        <mxCell id="B6J_ARxQb1qCebxdaRCz-89" value="Controller" style="rounded=0;whiteSpace=wrap;html=1;fillColor=#f8cecc;strokeColor=#b85450;" vertex="1" parent="WIyWlLk6GJQsqaUBKTNV-1">
          <mxGeometry x="1360" y="150" width="120" height="60" as="geometry" />
        </mxCell>
        <mxCell id="B6J_ARxQb1qCebxdaRCz-91" value="User Github" style="rounded=0;whiteSpace=wrap;html=1;" vertex="1" parent="WIyWlLk6GJQsqaUBKTNV-1">
          <mxGeometry x="1534" y="30" width="120" height="60" as="geometry" />
        </mxCell>
        <mxCell id="B6J_ARxQb1qCebxdaRCz-93" value="User Account" style="rounded=0;whiteSpace=wrap;html=1;" vertex="1" parent="WIyWlLk6GJQsqaUBKTNV-1">
          <mxGeometry x="1160" y="30" width="120" height="60" as="geometry" />
        </mxCell>
      </root>
    </mxGraphModel>
  </diagram>
</mxfile>
